<svg width="192" height="192" viewBox="0 0 192 192" fill="none" xmlns="http://www.w3.org/2000/svg">
<rect width="192" height="192" fill="#EE3643"/>
<path fill-rule="evenodd" clip-rule="evenodd" d="M45.3364 44.2104C41.9742 44.2104 41.6842 47.7599 41.6842 47.7599V74.633C41.6842 79.74 46.7257 79.5789 46.7257 79.5789H62.3678C65.7283 79.5789 65.1482 82.1752 65.1482 82.1752C65.1482 82.1752 60.8604 104.805 60.3985 108.634C59.9348 112.466 57.1544 114.903 57.1544 114.903C57.1544 114.903 53.4466 116.992 51.9409 117.804C50.4352 118.616 50.4352 122.526 50.4352 122.526H104.842V120.356C104.842 117.804 92.8392 114.903 88.3222 114.438C83.8034 113.975 84.7308 110.956 84.7308 110.956L86.5838 97.3796H91.7972L93.7666 83.685H88.5532L89.128 79.5789H104.079C114.16 78.5335 121.263 71.6168 121.263 71.6168V50.7262C113.269 45.04 100.718 44.2104 100.718 44.2104H45.3364ZM145.947 56.842H169.371C170.37 56.842 171.789 58.9523 171.789 61.2631C171.789 63.5738 170.37 65.6841 169.371 65.6841H145.947C144.869 69.5359 142.349 71.9999 139.414 71.9999H126.316V50.5262H139.414C142.35 50.5262 144.869 52.9902 145.947 56.842ZM53.811 150.316C50.5263 150.316 50.5263 146.748 50.5263 146.748V127.602H104.842V146.865C104.842 149.996 101.324 150.316 101.324 150.316H53.811ZM103.579 53.7131V53.6552C103.579 52.629 102.797 51.7894 101.84 51.7894H49.7385C48.7823 51.7894 48 52.629 48 53.6552V53.7131C48 54.7393 48.7823 55.5789 49.7385 55.5789H101.84C102.797 55.5789 103.579 54.7393 103.579 53.7131Z" fill="white"/>
</svg>
