<svg width="512" height="512" viewBox="0 0 512 512" fill="none" xmlns="http://www.w3.org/2000/svg">
<rect width="512" height="512" fill="#EE3643"/>
<path fill-rule="evenodd" clip-rule="evenodd" d="M120.897 117.895C111.931 117.895 111.158 127.36 111.158 127.36V199.022C111.158 212.64 124.602 212.211 124.602 212.211H166.314C175.275 212.211 173.729 219.134 173.729 219.134C173.729 219.134 162.294 279.481 161.063 289.69C159.826 299.909 152.412 306.407 152.412 306.407C152.412 306.407 142.524 311.978 138.509 314.144C134.494 316.311 134.494 326.737 134.494 326.737H279.579V320.949C279.579 314.144 247.571 306.407 235.526 305.169C223.476 303.935 225.949 295.883 225.949 295.883L230.89 259.679H244.793L250.044 223.16H236.142L237.675 212.211H277.544C304.427 209.423 323.368 190.979 323.368 190.979V135.27C302.051 120.107 268.583 117.895 268.583 117.895H120.897ZM389.192 151.579H451.656C454.319 151.579 458.105 157.207 458.105 163.369C458.105 169.531 454.319 175.158 451.656 175.158H389.192C386.316 185.43 379.596 192 371.77 192H336.842V134.737H371.77C379.601 134.737 386.316 141.308 389.192 151.579ZM143.496 400.842C134.737 400.842 134.737 391.329 134.737 391.329V340.273H279.579V391.64C279.579 399.989 270.196 400.842 270.196 400.842H143.496ZM276.211 143.235V143.081C276.211 140.344 274.124 138.105 271.574 138.105H132.636C130.086 138.105 128 140.344 128 143.081V143.235C128 145.972 130.086 148.211 132.636 148.211H271.574C274.124 148.211 276.211 145.972 276.211 143.235Z" fill="white"/>
</svg>
